<svg width="170" height="170" viewBox="0 0 170 170" fill="none" xmlns="http://www.w3.org/2000/svg">
  <rect width="170" height="170"/>
  <path d="M17.5204 68.5833C16.749 68.5833 16.1505 68.3705 15.7248 67.9449C15.3258 67.5192 15.1263 66.9074 15.1263 66.1093V42.3675C15.1263 41.5429 15.3258 40.9178 15.7248 40.4921C16.1505 40.0399 16.6958 39.8138 17.3608 39.8138C17.9727 39.8138 18.4249 39.9335 18.7175 40.1729C19.0367 40.3857 19.4091 40.7582 19.8348 41.2902L35.1173 61.1216H34.0798V42.2478C34.0798 41.4764 34.2794 40.8779 34.6784 40.4522C35.104 40.0266 35.7025 39.8138 36.474 39.8138C37.2454 39.8138 37.8307 40.0266 38.2297 40.4522C38.6287 40.8779 38.8282 41.4764 38.8282 42.2478V66.1892C38.8282 66.934 38.642 67.5192 38.2696 67.9449C37.8972 68.3705 37.3917 68.5833 36.7533 68.5833C36.1415 68.5833 35.6493 68.4636 35.2769 68.2242C34.9311 67.9848 34.5454 67.599 34.1198 67.067L18.8771 47.2356H19.8747V66.1093C19.8747 66.9074 19.6752 67.5192 19.2761 67.9449C18.8771 68.3705 18.2919 68.5833 17.5204 68.5833ZM46.9701 68.5833C46.1721 68.5833 45.5602 68.3705 45.1346 67.9449C44.709 67.4926 44.4962 66.8542 44.4962 66.0295V42.3276C44.4962 41.503 44.709 40.8779 45.1346 40.4522C45.5602 40.0266 46.1721 39.8138 46.9701 39.8138C47.7682 39.8138 48.38 40.0266 48.8056 40.4522C49.2579 40.8779 49.484 41.503 49.484 42.3276V52.6623H48.9253C49.5106 51.2524 50.415 50.1884 51.6387 49.4701C52.889 48.7253 54.2988 48.3529 55.8683 48.3529C57.4378 48.3529 58.728 48.6455 59.7388 49.2307C60.7497 49.816 61.5078 50.7071 62.0133 51.9042C62.5187 53.0746 62.7714 54.5643 62.7714 56.3732V66.0295C62.7714 66.8542 62.5586 67.4926 62.133 67.9449C61.7073 68.3705 61.0955 68.5833 60.2975 68.5833C59.4994 68.5833 58.8743 68.3705 58.4221 67.9449C57.9964 67.4926 57.7836 66.8542 57.7836 66.0295V56.6126C57.7836 55.0963 57.491 53.9924 56.9058 53.3007C56.3471 52.6091 55.4693 52.2633 54.2722 52.2633C52.8091 52.2633 51.6387 52.7288 50.7608 53.6599C49.9096 54.5643 49.484 55.7747 49.484 57.291V66.0295C49.484 67.732 48.646 68.5833 46.9701 68.5833ZM74.2617 68.6631C72.8518 68.6631 71.5882 68.3971 70.471 67.865C69.3803 67.3064 68.5158 66.5616 67.8773 65.6305C67.2655 64.6995 66.9596 63.6487 66.9596 62.4782C66.9596 61.0418 67.332 59.9112 68.0768 59.0866C68.8217 58.2353 70.032 57.6235 71.7079 57.2511C73.3838 56.8786 75.6316 56.6924 78.4514 56.6924H80.4465V59.5654H78.4913C76.842 59.5654 75.5252 59.6452 74.541 59.8048C73.5567 59.9644 72.8518 60.2437 72.4262 60.6427C72.0271 61.0152 71.8276 61.5472 71.8276 62.2388C71.8276 63.1167 72.1336 63.8349 72.7454 64.3936C73.3572 64.9522 74.2085 65.2315 75.2991 65.2315C76.177 65.2315 76.9484 65.032 77.6135 64.633C78.3051 64.2073 78.8504 63.6354 79.2494 62.9172C79.6485 62.1989 79.848 61.3743 79.848 60.4432V55.8545C79.848 54.5244 79.5554 53.5668 78.9701 52.9815C78.3849 52.3963 77.4006 52.1037 76.0174 52.1037C75.2459 52.1037 74.408 52.1968 73.5035 52.383C72.6257 52.5692 71.6946 52.8884 70.7104 53.3406C70.2049 53.5801 69.7527 53.6466 69.3537 53.5402C68.9813 53.4338 68.6887 53.2209 68.4759 52.9017C68.263 52.5559 68.1566 52.1835 68.1566 51.7845C68.1566 51.3854 68.263 50.9997 68.4759 50.6273C68.6887 50.2283 69.0478 49.9357 69.5532 49.7494C70.7769 49.244 71.9473 48.8849 73.0646 48.6721C74.2085 48.4593 75.2459 48.3529 76.177 48.3529C78.0923 48.3529 79.6618 48.6455 80.8854 49.2307C82.1357 49.816 83.0668 50.7071 83.6786 51.9042C84.2904 53.0746 84.5963 54.5909 84.5963 56.453V66.0295C84.5963 66.8542 84.3968 67.4926 83.9978 67.9449C83.5988 68.3705 83.0269 68.5833 82.282 68.5833C81.5372 68.5833 80.9519 68.3705 80.5263 67.9449C80.1273 67.4926 79.9278 66.8542 79.9278 66.0295V64.1142H80.247C80.0608 65.0453 79.6884 65.8566 79.1297 66.5483C78.5977 67.2133 77.9194 67.732 77.0947 68.1045C76.2701 68.4769 75.3257 68.6631 74.2617 68.6631ZM92.2127 68.5833C91.4146 68.5833 90.8028 68.3705 90.3772 67.9449C89.9516 67.4926 89.7387 66.8542 89.7387 66.0295V50.9465C89.7387 50.1219 89.9516 49.4967 90.3772 49.0711C90.8028 48.6455 91.4013 48.4327 92.1728 48.4327C92.9442 48.4327 93.5427 48.6455 93.9684 49.0711C94.394 49.4967 94.6068 50.1219 94.6068 50.9465V53.8594L94.1679 52.6623C94.6999 51.3322 95.5246 50.2815 96.6418 49.51C97.7591 48.7386 99.0892 48.3529 100.632 48.3529C102.202 48.3529 103.492 48.7253 104.503 49.4701C105.513 50.215 106.218 51.3588 106.617 52.9017H106.059C106.591 51.4918 107.469 50.3879 108.692 49.5898C109.916 48.7652 111.326 48.3529 112.922 48.3529C114.412 48.3529 115.635 48.6455 116.593 49.2307C117.577 49.816 118.309 50.7071 118.788 51.9042C119.266 53.0746 119.506 54.5643 119.506 56.3732V66.0295C119.506 66.8542 119.28 67.4926 118.827 67.9449C118.402 68.3705 117.79 68.5833 116.992 68.5833C116.194 68.5833 115.582 68.3705 115.156 67.9449C114.731 67.4926 114.518 66.8542 114.518 66.0295V56.5727C114.518 55.083 114.265 53.9924 113.76 53.3007C113.281 52.6091 112.456 52.2633 111.286 52.2633C109.982 52.2633 108.958 52.7288 108.213 53.6599C107.469 54.5643 107.096 55.8279 107.096 57.4506V66.0295C107.096 66.8542 106.883 67.4926 106.458 67.9449C106.032 68.3705 105.42 68.5833 104.622 68.5833C103.824 68.5833 103.199 68.3705 102.747 67.9449C102.321 67.4926 102.108 66.8542 102.108 66.0295V56.5727C102.108 55.083 101.856 53.9924 101.35 53.3007C100.871 52.6091 100.06 52.2633 98.9162 52.2633C97.6128 52.2633 96.5886 52.7288 95.8438 53.6599C95.0989 54.5643 94.7265 55.8279 94.7265 57.4506V66.0295C94.7265 67.732 93.8886 68.5833 92.2127 68.5833Z" fill="#0B1521"/>
  <path d="M16.5229 123.008C15.6716 123.008 14.98 122.812 14.448 122.422C13.9514 122.032 13.6499 121.518 13.5435 120.879C13.4371 120.206 13.5612 119.461 13.9159 118.645L27.9615 87.5212C28.4226 86.4926 28.9724 85.7655 29.6108 85.3399C30.2847 84.8788 31.0473 84.6482 31.8985 84.6482C32.7143 84.6482 33.4414 84.8788 34.0798 85.3399C34.7538 85.7655 35.3213 86.4926 35.7823 87.5212L49.8811 118.645C50.2713 119.461 50.4132 120.206 50.3067 120.879C50.2003 121.553 49.8989 122.085 49.4023 122.476C48.9057 122.83 48.2496 123.008 47.4338 123.008C46.4407 123.008 45.6604 122.777 45.0929 122.316C44.5608 121.819 44.082 121.074 43.6564 120.081L40.1982 112.048L43.0711 113.91H20.6195L23.4925 112.048L20.0875 120.081C19.6264 121.11 19.1476 121.855 18.651 122.316C18.1544 122.777 17.4451 123.008 16.5229 123.008ZM31.7921 92.469L24.3437 110.186L22.9604 108.483H40.7302L39.4001 110.186L31.8985 92.469H31.7921ZM64.1299 123.008C63.2432 123.008 62.4629 122.777 61.789 122.316C61.1506 121.855 60.6186 121.145 60.1929 120.188L51.7337 100.556C51.4144 99.7756 51.2903 99.0485 51.3612 98.3746C51.4676 97.7007 51.7869 97.1686 52.3189 96.7785C52.8864 96.3529 53.649 96.1401 54.6066 96.1401C55.4224 96.1401 56.0786 96.3351 56.5751 96.7253C57.0717 97.08 57.515 97.7716 57.9052 98.8002L65.0876 116.73H63.4915L70.8867 98.747C71.2769 97.7539 71.7202 97.08 72.2168 96.7253C72.7488 96.3351 73.4582 96.1401 74.3449 96.1401C75.1252 96.1401 75.7459 96.3529 76.207 96.7785C76.6681 97.1686 76.9519 97.7007 77.0583 98.3746C77.1647 99.013 77.0405 99.7224 76.6858 100.503L68.067 120.188C67.6768 121.145 67.1448 121.855 66.4709 122.316C65.8324 122.777 65.0521 123.008 64.1299 123.008ZM93.9543 123.114C91.0105 123.114 88.4744 122.564 86.3463 121.465C84.2182 120.365 82.5689 118.805 81.3985 116.783C80.2635 114.761 79.696 112.367 79.696 109.6C79.696 106.905 80.2457 104.546 81.3453 102.524C82.4802 100.503 84.0231 98.9243 85.9739 97.7893C87.9601 96.6189 90.2124 96.0336 92.7307 96.0336C94.575 96.0336 96.2243 96.3351 97.6786 96.9381C99.1682 97.5411 100.427 98.41 101.456 99.545C102.52 100.68 103.318 102.063 103.85 103.695C104.418 105.291 104.701 107.1 104.701 109.122C104.701 109.76 104.471 110.257 104.01 110.611C103.584 110.93 102.963 111.09 102.148 111.09H85.0695V107.259H100.019L99.1682 108.058C99.1682 106.426 98.92 105.06 98.4234 103.961C97.9623 102.861 97.2707 102.028 96.3485 101.46C95.4618 100.857 94.3445 100.556 92.9967 100.556C91.507 100.556 90.2301 100.911 89.1661 101.62C88.1375 102.294 87.3394 103.269 86.7719 104.546C86.2399 105.788 85.9739 107.277 85.9739 109.015V109.388C85.9739 112.296 86.6478 114.477 87.9956 115.932C89.3789 117.35 91.4006 118.06 94.0608 118.06C94.9829 118.06 96.0115 117.953 97.1465 117.74C98.317 117.492 99.4165 117.084 100.445 116.517C101.19 116.091 101.846 115.914 102.414 115.985C102.981 116.02 103.424 116.215 103.744 116.57C104.098 116.925 104.311 117.368 104.382 117.9C104.453 118.397 104.347 118.911 104.063 119.443C103.815 119.975 103.371 120.436 102.733 120.826C101.491 121.607 100.055 122.192 98.4234 122.582C96.8273 122.937 95.3376 123.114 93.9543 123.114ZM116.15 132.584C115.369 132.584 114.731 132.371 114.234 131.946C113.738 131.555 113.436 131.023 113.33 130.35C113.259 129.676 113.383 128.966 113.702 128.221L117.32 120.188V122.954L107.637 100.556C107.318 99.7756 107.211 99.0485 107.318 98.3746C107.424 97.7007 107.743 97.1686 108.275 96.7785C108.843 96.3529 109.606 96.1401 110.563 96.1401C111.379 96.1401 112.035 96.3351 112.532 96.7253C113.028 97.08 113.472 97.7716 113.862 98.8002L121.044 116.73H119.448L126.79 98.747C127.18 97.7539 127.641 97.08 128.173 96.7253C128.705 96.3351 129.415 96.1401 130.302 96.1401C131.082 96.1401 131.703 96.3529 132.164 96.7785C132.625 97.1686 132.908 97.7007 133.015 98.3746C133.121 99.013 132.997 99.7224 132.642 100.503L119.714 130.03C119.253 131.023 118.756 131.697 118.224 132.052C117.692 132.407 117.001 132.584 116.15 132.584ZM145.028 111.729C144.354 111.729 143.822 111.516 143.431 111.09C143.077 110.629 142.899 110.026 142.899 109.281C142.899 108.182 143.024 107.153 143.272 106.195C143.556 105.202 143.999 104.209 144.602 103.216C145.205 102.223 146.003 101.177 146.996 100.077C147.741 99.2258 148.326 98.481 148.752 97.8425C149.213 97.1686 149.532 96.5302 149.709 95.9272C149.922 95.3243 150.029 94.7036 150.029 94.0651C150.029 92.8947 149.603 91.9725 148.752 91.2986C147.9 90.6247 146.695 90.2877 145.134 90.2877C143.715 90.2877 142.421 90.4828 141.25 90.873C140.115 91.2276 138.962 91.7419 137.792 92.4158C137.012 92.8769 136.302 93.0897 135.664 93.0543C135.061 92.9833 134.564 92.7528 134.174 92.3626C133.784 91.9725 133.536 91.4937 133.429 90.9262C133.323 90.3587 133.412 89.7734 133.695 89.1705C133.979 88.5675 134.493 88.0177 135.238 87.5212C136.692 86.5635 138.359 85.8364 140.239 85.3399C142.119 84.8078 143.893 84.5418 145.56 84.5418C147.794 84.5418 149.745 84.9142 151.412 85.6591C153.114 86.4039 154.427 87.4325 155.349 88.7448C156.307 90.0572 156.785 91.6001 156.785 93.3735C156.785 94.473 156.626 95.5193 156.307 96.5125C155.987 97.4701 155.473 98.4455 154.764 99.4386C154.054 100.396 153.079 101.443 151.837 102.578C150.738 103.571 149.851 104.475 149.177 105.291C148.539 106.107 148.06 106.887 147.741 107.632C147.457 108.377 147.262 109.175 147.156 110.026C147.12 110.523 146.907 110.93 146.517 111.25C146.162 111.569 145.666 111.729 145.028 111.729ZM144.921 122.848C143.715 122.848 142.74 122.476 141.995 121.731C141.286 120.986 140.931 120.028 140.931 118.858C140.931 117.723 141.286 116.801 141.995 116.091C142.74 115.346 143.715 114.974 144.921 114.974C146.162 114.974 147.12 115.346 147.794 116.091C148.503 116.801 148.858 117.723 148.858 118.858C148.858 120.028 148.503 120.986 147.794 121.731C147.12 122.476 146.162 122.848 144.921 122.848Z" fill="#EA5234"/>
</svg>
